# xmcd
#
# Track frame offsets: 
#        200
#        9297
#        19345
#        40182
#        54930
#        63720
#        88905
#        96000
#        104025
#        120817
#        129385
#        139757
#
# Disc length: 2175 seconds
#
# Revision: 1
# Processed by: cddbd v1.4PL0 Copyright (c) Steve Scherf et al.
# Submitted via: ExactAudioCopy v0.90b4
#
DISCID=9a087d0c
DTITLE=Ralph Stanley and The Clinch Mountain Boys - Almost Home
DYEAR=1992
DGENRE=Gospel
TTITLE0=God Put A Rainbow In The Clouds
TTITLE1=Old Ship Of Zion
TTITLE2=Almost Home
TTITLE3=Thy Will Be Done
TTITLE4=It's Heaven On Earth To Walk With The Lord
TTITLE5=Village Church Yard
TTITLE6=I'll Live In Glory
TTITLE7=I've Got To Cross That Lonely River
TTITLE8=The Day Is Past And Gone
TTITLE9=They Shall Walk With Me In White
TTITLE10=Life's Other Side
TTITLE11=Jerusalem, My Happy Home
EXTD=CD Rebel 1707\n\nRicky Skaggs - Tenor (Vocal]\nRalph Stanley - Ar
EXTD=ranger, Vocals, Producer, Mixing\nKeith Whitley - Bass (Vocal]\nJ
EXTD=unior Blankenship - Bass (Vocal]\nJack Cooke - Tenor (Vocal]\nErn
EXTD=ie Thacker - Baritone (Vocal]\nRoy Lee Centers - Baritone (Vocal)
EXTD=\nCharlie Sizemore - Baritone (Vocal]\n
EXTT0=
EXTT1=
EXTT2=
EXTT3=
EXTT4=
EXTT5=
EXTT6=
EXTT7=
EXTT8=
EXTT9=
EXTT10=
EXTT11=
PLAYORDER=
